<svg xmlns="http://www.w3.org/2000/svg" width="1200" height="630" viewBox="0 0 1200 630" role="img" aria-labelledby="title description">
  <title id="title">Noyeol Park, Senior Software Engineer</title>
  <desc id="description">Noyeol Park Senior Software Engineer portfolio cover.</desc>
  <defs>
    <pattern id="grid" width="24" height="24" patternUnits="userSpaceOnUse"><path d="M24 0H0V24" fill="none" stroke="#fff" stroke-opacity=".035" /></pattern>
    <linearGradient id="page" x1="0" y1="0" x2="1" y2="1"><stop stop-color="#0f0f11"/><stop offset="1" stop-color="#15151a"/></linearGradient>
    <linearGradient id="core" x1="0" y1="0" x2="1" y2="1"><stop stop-color="#6667c8" stop-opacity=".3"/><stop offset="1" stop-color="#fff" stop-opacity=".04"/></linearGradient>
  </defs>
  <rect width="1200" height="630" fill="url(#page)"/>
  <rect width="1200" height="630" fill="url(#grid)"/>
  <circle cx="430" cy="90" r="250" fill="#6667c8" fill-opacity=".1"/>

  <g font-family="Arial, Helvetica, sans-serif">
    <rect x="80" y="118" width="42" height="3" fill="#a9abec"/>
    <text x="80" y="163" fill="#a9abec" font-size="18" font-weight="700" letter-spacing="4">NOYEOL PARK</text>
    <text x="80" y="198" fill="#bfc0ca" font-size="15" font-weight="700" letter-spacing="2">SENIOR SOFTWARE ENGINEER</text>
    <text x="80" y="286" fill="#f5f5f7" font-size="65" font-weight="700" letter-spacing="-3">SOFTWARE</text>
    <text x="80" y="356" fill="#f5f5f7" font-size="65" font-weight="700" letter-spacing="-3">SYSTEMS</text>
    <text x="82" y="403" fill="#bfc0ca" font-size="22">PORTFOLIO</text>
    <text x="80" y="524" fill="#a9abec" font-size="15" font-weight="700" letter-spacing="2">DATA · PRODUCT · INTERACTION</text>

    <g transform="translate(500 75)">
      <rect width="642" height="480" rx="14" fill="#141417" stroke="#fff" stroke-opacity=".14" stroke-width="1.5"/>
      <line x1="0" y1="66" x2="642" y2="66" stroke="#fff" stroke-opacity=".1"/>
      <text x="28" y="42" fill="#9d9da7" font-size="16" font-weight="700" letter-spacing="1">System map</text>
      <circle cx="514" cy="35" r="5" fill="#6667c8"/>
      <text x="528" y="42" fill="#a9abec" font-size="14" font-weight="700" letter-spacing=".5">Operational</text>

      <g transform="translate(30 135)">
        <rect width="160" height="150" rx="8" fill="#fff" fill-opacity=".035" stroke="#fff" stroke-opacity=".16"/>
        <text x="18" y="38" fill="#858590" font-size="11" font-weight="700" letter-spacing="1.1">01 / INPUT</text>
        <text x="18" y="80" fill="#f3f3f6" font-size="24" font-weight="700">Signals</text>
        <text x="18" y="110" fill="#9d9da8" font-size="12">data · motion · voice</text>
      </g>
      <line x1="190" y1="210" x2="214" y2="210" stroke="#a9abec" stroke-opacity=".72" stroke-width="2"/><path d="M214 210l-8-5v10z" fill="#a9abec"/>

      <g transform="translate(214 120)">
        <rect width="190" height="180" rx="8" fill="url(#core)" stroke="#a9abec" stroke-opacity=".76"/>
        <text x="18" y="39" fill="#bfc0ff" font-size="11" font-weight="700" letter-spacing="1.1">02 / CORE</text>
        <text x="18" y="87" fill="#f5f5f7" font-size="21" font-weight="700">System design</text>
        <text x="18" y="117" fill="#bfc0ca" font-size="12">rules · runtime ·</text>
        <text x="18" y="135" fill="#bfc0ca" font-size="12">data flow</text>
        <circle cx="24" cy="157" r="3" fill="#a9abec"/><circle cx="42" cy="157" r="3" fill="#a9abec" fill-opacity=".65"/><circle cx="60" cy="157" r="3" fill="#a9abec" fill-opacity=".35"/>
      </g>
      <line x1="404" y1="210" x2="428" y2="210" stroke="#a9abec" stroke-opacity=".72" stroke-width="2"/><path d="M428 210l-8-5v10z" fill="#a9abec"/>

      <g transform="translate(428 135)">
        <rect width="184" height="150" rx="8" fill="#fff" fill-opacity=".035" stroke="#fff" stroke-opacity=".16"/>
        <text x="18" y="38" fill="#858590" font-size="11" font-weight="700" letter-spacing="1.1">03 / OUTPUT</text>
        <text x="18" y="80" fill="#f3f3f6" font-size="23" font-weight="700">Experience</text>
        <text x="18" y="110" fill="#9d9da8" font-size="12">product · service ·</text>
        <text x="18" y="128" fill="#9d9da8" font-size="12">device</text>
      </g>

      <line x1="0" y1="394" x2="642" y2="394" stroke="#fff" stroke-opacity=".1"/>
      <text x="28" y="436" fill="#777782" font-size="11" font-weight="700" letter-spacing="1.1">INPUT</text><text x="84" y="436" fill="#a9abec" font-size="16">→</text>
      <text x="112" y="436" fill="#777782" font-size="11" font-weight="700" letter-spacing="1.1">STRUCTURE</text><text x="208" y="436" fill="#a9abec" font-size="16">→</text>
      <text x="236" y="436" fill="#777782" font-size="11" font-weight="700" letter-spacing="1.1">EXPERIENCE</text>
    </g>
  </g>
</svg>
